ffmpeg started on 2020-07-19 at 19:18:25
Report written to "C:/Users/Administrator.USER-20200623OM/Desktop/N_m3u8DL-CLI_v2.6.3_with_ffmpeg_and_SimpleG/Logs/2020-07-19_19-14-38_ffreport.log"
Command line:
ffmpeg -loglevel warning -i "concat:0000.ts|0001.ts|0002.ts|0003.ts|0004.ts|0005.ts|0006.ts|0007.ts|0008.ts|0009.ts|0010.ts|0011.ts|0012.ts|0013.ts|0014.ts|0015.ts|0016.ts|0017.ts|0018.ts|0019.ts|0020.ts|0021.ts|0022.ts|0023.ts|0024.ts|0025.ts|0026.ts|0027.ts|0028.ts|0029.ts|0030.ts|0031.ts|0032.ts|0033.ts|0034.ts|0035.ts|0036.ts|0037.ts|0038.ts|0039.ts|0040.ts|0041.ts|0042.ts|0043.ts|0044.ts|0045.ts|0046.ts|0047.ts|0048.ts|0049.ts|0050.ts|0051.ts|0052.ts|0053.ts|0054.ts|0055.ts|0056.ts|0057.ts|0058.ts|0059.ts|0060.ts|0061.ts|0062.ts|0063.ts|0064.ts|0065.ts|0066.ts|0067.ts|0068.ts|0069.ts|0070.ts|0071.ts|0072.ts|0073.ts|0074.ts|0075.ts|0076.ts|0077.ts|0078.ts|0079.ts|0080.ts|0081.ts|0082.ts|0083.ts|0084.ts|0085.ts|0086.ts|0087.ts|0088.ts|0089.ts|0090.ts|0091.ts|0092.ts|0093.ts|0094.ts|0095.ts|0096.ts|0097.ts|0098.ts|0099.ts|0100.ts|0101.ts|0102.ts|0103.ts|0104.ts|0105.ts|0106.ts|0107.ts|0108.ts|0109.ts|0110.ts|0111.ts|0112.ts|0113.ts|0114.ts|0115.ts|0116.ts|0117.ts|0118.ts|0119.ts|0120.ts|0121.ts|0122.ts|0123.ts|0124.ts|0125.ts|0126.ts|0127.ts|0128.ts|0129.ts|0130.ts|0131.ts|0132.ts|0133.ts|0134.ts|0135.ts|0136.ts|0137.ts|0138.ts|0139.ts|0140.ts|0141.ts|0142.ts|0143.ts|0144.ts|0145.ts|0146.ts|0147.ts|0148.ts|0149.ts|0150.ts|0151.ts|0152.ts|0153.ts|0154.ts|0155.ts|0156.ts|0157.ts|0158.ts|0159.ts|0160.ts|0161.ts|0162.ts|0163.ts|0164.ts|0165.ts|0166.ts|0167.ts|0168.ts|0169.ts|0170.ts|0171.ts|0172.ts|0173.ts|0174.ts|0175.ts|0176.ts|0177.ts|0178.ts|0179.ts|0180.ts|0181.ts|0182.ts|0183.ts|0184.ts|0185.ts|0186.ts|0187.ts|0188.ts|0189.ts|0190.ts|0191.ts|0192.ts|0193.ts|0194.ts|0195.ts|0196.ts|0197.ts|0198.ts|0199.ts|0200.ts|0201.ts|0202.ts|0203.ts|0204.ts|0205.ts|0206.ts|0207.ts|0208.ts|0209.ts|0210.ts|0211.ts|0212.ts|0213.ts|0214.ts|0215.ts|0216.ts|0217.ts|0218.ts|0219.ts|0220.ts|0221.ts|0222.ts|0223.ts|0224.ts|0225.ts|0226.ts|0227.ts|0228.ts|0229.ts|0230.ts|0231.ts|0232.ts|0233.ts|0234.ts|0235.ts|0236.ts|0237.ts|0238.ts|0239.ts|0240.ts|0241.ts|0242.ts|0243.ts|0244.ts|0245.ts|0246.ts|0247.ts|0248.ts|0249.ts|0250.ts|0251.ts|0252.ts|0253.ts|0254.ts|0255.ts|0256.ts|0257.ts|0258.ts|0259.ts|0260.ts|0261.ts|0262.ts|0263.ts|0264.ts|0265.ts|0266.ts|0267.ts|0268.ts|0269.ts|0270.ts|0271.ts|0272.ts|0273.ts|0274.ts|0275.ts|0276.ts|0277.ts|0278.ts|0279.ts|0280.ts|0281.ts|0282.ts|0283.ts|0284.ts|0285.ts|0286.ts|0287.ts|0288.ts|0289.ts|0290.ts|0291.ts|0292.ts|0293.ts|0294.ts|0295.ts|0296.ts|0297.ts|0298.ts|0299.ts|0300.ts|0301.ts|0302.ts|0303.ts|0304.ts|0305.ts|0306.ts|0307.ts|0308.ts|0309.ts|0310.ts|0311.ts|0312.ts|0313.ts|0314.ts|0315.ts|0316.ts|0317.ts|0318.ts|0319.ts|0320.ts|0321.ts|0322.ts|0323.ts|0324.ts|0325.ts|0326.ts|0327.ts|0328.ts|0329.ts|0330.ts|0331.ts|0332.ts|0333.ts|0334.ts|0335.ts|0336.ts|0337.ts|0338.ts|0339.ts|0340.ts|0341.ts|0342.ts|0343.ts|0344.ts|0345.ts|0346.ts|0347.ts|0348.ts|0349.ts|0350.ts|0351.ts|0352.ts|0353.ts|0354.ts|0355.ts|0356.ts|0357.ts|0358.ts|0359.ts|0360.ts|0361.ts|0362.ts|0363.ts|0364.ts|0365.ts|0366.ts|0367.ts|0368.ts|0369.ts|0370.ts|0371.ts|0372.ts|0373.ts|0374.ts|0375.ts|0376.ts|0377.ts|0378.ts|0379.ts|0380.ts|0381.ts|0382.ts|0383.ts|0384.ts|0385.ts|0386.ts|0387.ts|0388.ts|0389.ts|0390.ts|0391.ts|0392.ts|0393.ts|0394.ts|0395.ts|0396.ts|0397.ts|0398.ts|0399.ts|0400.ts|0401.ts|0402.ts|0403.ts|0404.ts|0405.ts|0406.ts|0407.ts|0408.ts|0409.ts|0410.ts|0411.ts|0412.ts|0413.ts|0414.ts|0415.ts|0416.ts|0417.ts|0418.ts|0419.ts|0420.ts|0421.ts|0422.ts|0423.ts|0424.ts|0425.ts|0426.ts|0427.ts|0428.ts|0429.ts|0430.ts|0431.ts|0432.ts|0433.ts|0434.ts|0435.ts|0436.ts|0437.ts|0438.ts|0439.ts|0440.ts|0441.ts|0442.ts|0443.ts|0444.ts|0445.ts|0446.ts|0447.ts|0448.ts|0449.ts|0450.ts|0451.ts|0452.ts|0453.ts|0454.ts|0455.ts|0456.ts|0457.ts|0458.ts|0459.ts|0460.ts|0461.ts|0462.ts|0463.ts|0464.ts|0465.ts|0466.ts|0467.ts|0468.ts|0469.ts|0470.ts|0471.ts|0472.ts|0473.ts|0474.ts|0475.ts|0476.ts|0477.ts|0478.ts|0479.ts|0480.ts|0481.ts|0482.ts|0483.ts|0484.ts|0485.ts|0486.ts|0487.ts|0488.ts|0489.ts|0490.ts|0491.ts|0492.ts|0493.ts|0494.ts|0495.ts|0496.ts|0497.ts|0498.ts|0499.ts|0500.ts|0501.ts|0502.ts|0503.ts|0504.ts|0505.ts|0506.ts|0507.ts|0508.ts|0509.ts|0510.ts|0511.ts|0512.ts|0513.ts|0514.ts|0515.ts|0516.ts|0517.ts|0518.ts|0519.ts|0520.ts|0521.ts|0522.ts|0523.ts|0524.ts|0525.ts|0526.ts|0527.ts|0528.ts|0529.ts|0530.ts|0531.ts|0532.ts|0533.ts|0534.ts|0535.ts|0536.ts|0537.ts|0538.ts|0539.ts|0540.ts|0541.ts|0542.ts|0543.ts|0544.ts|0545.ts|0546.ts|0547.ts|0548.ts|0549.ts|0550.ts|0551.ts|0552.ts|0553.ts|0554.ts|0555.ts|0556.ts|0557.ts|0558.ts|0559.ts|0560.ts|0561.ts|0562.ts|0563.ts|0564.ts|0565.ts|0566.ts|0567.ts|0568.ts|0569.ts|0570.ts|0571.ts|0572.ts|0573.ts|0574.ts|0575.ts|0576.ts|0577.ts|0578.ts|0579.ts|0580.ts|0581.ts|0582.ts|0583.ts|0584.ts|0585.ts|0586.ts|0587.ts|0588.ts|0589.ts|0590.ts|0591.ts|0592.ts|0593.ts|0594.ts|0595.ts|0596.ts|0597.ts|0598.ts|0599.ts|0600.ts|0601.ts|0602.ts|0603.ts|0604.ts|0605.ts|0606.ts|0607.ts|0608.ts|0609.ts|0610.ts|0611.ts|0612.ts|0613.ts|0614.ts|0615.ts|0616.ts|0617.ts|0618.ts|0619.ts|0620.ts|0621.ts|0622.ts|0623.ts|0624.ts|0625.ts|0626.ts|0627.ts|0628.ts|0629.ts|0630.ts|0631.ts|0632.ts|0633.ts|0634.ts|0635.ts|0636.ts|0637.ts|0638.ts|0639.ts|0640.ts|0641.ts|0642.ts|0643.ts|0644.ts|0645.ts|0646.ts|0647.ts|0648.ts|0649.ts|0650.ts|0651.ts|0652.ts|0653.ts|0654.ts|0655.ts|0656.ts|0657.ts|0658.ts|0659.ts|0660.ts|0661.ts|0662.ts|0663.ts|0664.ts|0665.ts|0666.ts|0667.ts|0668.ts|0669.ts|0670.ts|0671.ts|0672.ts|0673.ts|0674.ts|0675.ts|0676.ts|0677.ts|0678.ts|0679.ts|0680.ts|0681.ts|0682.ts|0683.ts|0684.ts|0685.ts|0686.ts|0687.ts|0688.ts|0689.ts|0690.ts|0691.ts|0692.ts|0693.ts|0694.ts|0695.ts|0696.ts|0697.ts|0698.ts|0699.ts|0700.ts|0701.ts|0702.ts|0703.ts|0704.ts|0705.ts|0706.ts|0707.ts|0708.ts|0709.ts|0710.ts|0711.ts|0712.ts|0713.ts|0714.ts|0715.ts|0716.ts|0717.ts|0718.ts|0719.ts|0720.ts|0721.ts|0722.ts|0723.ts|0724.ts|0725.ts|0726.ts|0727.ts|0728.ts|0729.ts|0730.ts|0731.ts|0732.ts|0733.ts|0734.ts|0735.ts|0736.ts|0737.ts|0738.ts|0739.ts|0740.ts|0741.ts|0742.ts|0743.ts|0744.ts|0745.ts|0746.ts|0747.ts|0748.ts|0749.ts|0750.ts|0751.ts|0752.ts|0753.ts|0754.ts|0755.ts|0756.ts|0757.ts|0758.ts|0759.ts|0760.ts|0761.ts|0762.ts|0763.ts|0764.ts|0765.ts|0766.ts|0767.ts|0768.ts|0769.ts|0770.ts|0771.ts|0772.ts|0773.ts|0774.ts|0775.ts|0776.ts|0777.ts|0778.ts|0779.ts|0780.ts|0781.ts|0782.ts|0783.ts|0784.ts|0785.ts|0786.ts|0787.ts|0788.ts|0789.ts|0790.ts|0791.ts|0792.ts|0793.ts|0794.ts|0795.ts|0796.ts|0797.ts|0798.ts|0799.ts|0800.ts|0801.ts|0802.ts|0803.ts|0804.ts|0805.ts|0806.ts|0807.ts|0808.ts|0809.ts|0810.ts|0811.ts|0812.ts|0813.ts|0814.ts|0815.ts|0816.ts|0817.ts|0818.ts|0819.ts|0820.ts|0821.ts|0822.ts|0823.ts|0824.ts|0825.ts|0826.ts|0827.ts|0828.ts|0829.ts|0830.ts|0831.ts|0832.ts|0833.ts|0834.ts|0835.ts|0836.ts|0837.ts|0838.ts|0839.ts|0840.ts|0841.ts|0842.ts|0843.ts|0844.ts|0845.ts|0846.ts|0847.ts|0848.ts|0849.ts|0850.ts|0851.ts|0852.ts|0853.ts|0854.ts|0855.ts|0856.ts|0857.ts|0858.ts|0859.ts|0860.ts|0861.ts|0862.ts|0863.ts|0864.ts|0865.ts|0866.ts|0867.ts|0868.ts|0869.ts|0870.ts|0871.ts|0872.ts|0873.ts|0874.ts|0875.ts|0876.ts|0877.ts|0878.ts|0879.ts|0880.ts|0881.ts|0882.ts|0883.ts|0884.ts|0885.ts|0886.ts|0887.ts|0888.ts|0889.ts|0890.ts|0891.ts|0892.ts|0893.ts|0894.ts|0895.ts|0896.ts|0897.ts|0898.ts|0899.ts|0900.ts|0901.ts|0902.ts|0903.ts|0904.ts|0905.ts|0906.ts|0907.ts|0908.ts|0909.ts|0910.ts|0911.ts|0912.ts|0913.ts|0914.ts|0915.ts|0916.ts|0917.ts|0918.ts|0919.ts|0920.ts|0921.ts|0922.ts|0923.ts|0924.ts|0925.ts|0926.ts|0927.ts|0928.ts|0929.ts|0930.ts|0931.ts|0932.ts|0933.ts|0934.ts|0935.ts|0936.ts|0937.ts|0938.ts|0939.ts|0940.ts|0941.ts|0942.ts|0943.ts|0944.ts|0945.ts|0946.ts|0947.ts|0948.ts|0949.ts|0950.ts|0951.ts|0952.ts|0953.ts|0954.ts|0955.ts|0956.ts|0957.ts|0958.ts|0959.ts|0960.ts|0961.ts|0962.ts|0963.ts|0964.ts|0965.ts|0966.ts|0967.ts|0968.ts|0969.ts|0970.ts|0971.ts|0972.ts|0973.ts|0974.ts|0975.ts|0976.ts|0977.ts|0978.ts|0979.ts|0980.ts|0981.ts|0982.ts|0983.ts|0984.ts|0985.ts|0986.ts|0987.ts|0988.ts|0989.ts|0990.ts|0991.ts|0992.ts|0993.ts|0994.ts|0995.ts|0996.ts|0997.ts|0998.ts|0999.ts|1000.ts|1001.ts|1002.ts|1003.ts|1004.ts|1005.ts|1006.ts|1007.ts|1008.ts|1009.ts|1010.ts|1011.ts|1012.ts|1013.ts|1014.ts|1015.ts|1016.ts|1017.ts|1018.ts|1019.ts|1020.ts|1021.ts|1022.ts|1023.ts|1024.ts|1025.ts|1026.ts|1027.ts|1028.ts|1029.ts|1030.ts|1031.ts|1032.ts|1033.ts|1034.ts|1035.ts|1036.ts|1037.ts|1038.ts|1039.ts|1040.ts|1041.ts|1042.ts|1043.ts|1044.ts|1045.ts|1046.ts|1047.ts|1048.ts|1049.ts|1050.ts|1051.ts|1052.ts|1053.ts|1054.ts|1055.ts|1056.ts|1057.ts|1058.ts|1059.ts|1060.ts|1061.ts|1062.ts|1063.ts|1064.ts|1065.ts|1066.ts|1067.ts|1068.ts|1069.ts|1070.ts|1071.ts|1072.ts|1073.ts|1074.ts|1075.ts|1076.ts|1077.ts|1078.ts|1079.ts|1080.ts|1081.ts|1082.ts|1083.ts|1084.ts|1085.ts|1086.ts|1087.ts|1088.ts|1089.ts|1090.ts|1091.ts|1092.ts|1093.ts|1094.ts|1095.ts|1096.ts|1097.ts|1098.ts|1099.ts|1100.ts|1101.ts|1102.ts|1103.ts|1104.ts|1105.ts|1106.ts|1107.ts|1108.ts|1109.ts|1110.ts|1111.ts|1112.ts|1113.ts|1114.ts|1115.ts|1116.ts|1117.ts|1118.ts|1119.ts|1120.ts|1121.ts|1122.ts|1123.ts|1124.ts|1125.ts|1126.ts|1127.ts|1128.ts|1129.ts|1130.ts|1131.ts|1132.ts|1133.ts|1134.ts|1135.ts|1136.ts|1137.ts|1138.ts|1139.ts|1140.ts|1141.ts|1142.ts|1143.ts|1144.ts|1145.ts|1146.ts|1147.ts|1148.ts|1149.ts|1150.ts|1151.ts|1152.ts|1153.ts|1154.ts|1155.ts|1156.ts|1157.ts|1158.ts|1159.ts|1160.ts|1161.ts|1162.ts|1163.ts|1164.ts|1165.ts|1166.ts|1167.ts|1168.ts|1169.ts|1170.ts|1171.ts|1172.ts|1173.ts|1174.ts|1175.ts|1176.ts|1177.ts|1178.ts|1179.ts|1180.ts|1181.ts|1182.ts|1183.ts|1184.ts|1185.ts|1186.ts|1187.ts|1188.ts|1189.ts|1190.ts|1191.ts|1192.ts|1193.ts|1194.ts|1195.ts|1196.ts|1197.ts|1198.ts|1199.ts|1200.ts|1201.ts|1202.ts|1203.ts|1204.ts|1205.ts|1206.ts|1207.ts|1208.ts|1209.ts|1210.ts|1211.ts|1212.ts|1213.ts|1214.ts|1215.ts|1216.ts|1217.ts|1218.ts|1219.ts|1220.ts|1221.ts|1222.ts|1223.ts|1224.ts|1225.ts|1226.ts|1227.ts|1228.ts|1229.ts|1230.ts|1231.ts|1232.ts|1233.ts|1234.ts|1235.ts|1236.ts|1237.ts|1238.ts|1239.ts|1240.ts|1241.ts|1242.ts|1243.ts|1244.ts|1245.ts|1246.ts|1247.ts|1248.ts|1249.ts|1250.ts|1251.ts|1252.ts|1253.ts|1254.ts|1255.ts|1256.ts|1257.ts|1258.ts|1259.ts|1260.ts|1261.ts|1262.ts|1263.ts|1264.ts|1265.ts|1266.ts|1267.ts|1268.ts|1269.ts|1270.ts|1271.ts|1272.ts|1273.ts|1274.ts|1275.ts|1276.ts|1277.ts|1278.ts|1279.ts|1280.ts|1281.ts|1282.ts|1283.ts|1284.ts|1285.ts|1286.ts|1287.ts|1288.ts|1289.ts|1290.ts|1291.ts|1292.ts|1293.ts|1294.ts|1295.ts|1296.ts|1297.ts|1298.ts|1299.ts|1300.ts|1301.ts|1302.ts|1303.ts|1304.ts|1305.ts|1306.ts|1307.ts|1308.ts|1309.ts|1310.ts|1311.ts|" -map "0:v?" -map "0:a?" -map "0:s?" -metadata "date=2020-07-19T19:18:25.2218430+08:00" -metadata "encoding_tool=" -metadata "title=" -metadata "copyright=" -metadata "comment=" -metadata:s:a:0 "handler_name=" -metadata:s:a:0 "handler=" -c copy -y -bsf:a aac_adtstoasc "E:\\\xd6\xe9\xb7\xe5\xbf\xce\\Vue.mp4"
ffmpeg version N-94813-g85386c36e3-ffmpeg-for-N_m3u8DL-CLI Copyright (c) 2000-2019 the FFmpeg developers
  built with gcc 8.2.0 (GCC)
  libavutil      56. 35.100 / 56. 35.100
  libavcodec     58. 56.101 / 58. 56.101
  libavformat    58. 32.104 / 58. 32.104
  libavfilter     7. 58.102 /  7. 58.102
  libavresample   4.  0.  0 /  4.  0.  0
  libswresample   3.  6.100 /  3.  6.100
Input #0, mpegts, from 'concat:0000.ts|0001.ts|0002.ts|0003.ts|0004.ts|0005.ts|0006.ts|0007.ts|0008.ts|0009.ts|0010.ts|0011.ts|0012.ts|0013.ts|0014.ts|0015.ts|0016.ts|0017.ts|0018.ts|0019.ts|0020.ts|0021.ts|0022.ts|0023.ts|0024.ts|0025.ts|0026.ts|0027.ts|0028.ts|0029.ts|0030.ts|0031.ts|0032.ts|0033.ts|0034.ts|0035.ts|0036.ts|0037.ts|0038.ts|0039.ts|0040.ts|0041.ts|0042.ts|0043.ts|0044.ts|0045.ts|0046.ts|0047.ts|0048.ts|0049.ts|0050.ts|0051.ts|0052.ts|0053.ts|0054.ts|0055.ts|0056.ts|0057.ts|0058.ts|0059.ts|0060.ts|0061.ts|0062.ts|0063.ts|0064.ts|0065.ts|0066.ts|0067.ts|0068.ts|0069.ts|0070.ts|0071.ts|0072.ts|0073.ts|0074.ts|0075.ts|0076.ts|0077.ts|0078.ts|0079.ts|0080.ts|0081.ts|0082.ts|0083.ts|0084.ts|0085.ts|0086.ts|0087.ts|0088.ts|0089.ts|0090.ts|0091.ts|0092.ts|0093.ts|0094.ts|0095.ts|0096.ts|0097.ts|0098.ts|0099.ts|0100.ts|0101.ts|0102.ts|0103.ts|0104.ts|0105.ts|0106.ts|0107.ts|0108.ts|0109.ts|0110.ts|0111.ts|0112.ts|0113.ts|0114.ts|0115.ts|0116.ts|0117.ts|0118.ts|0119.ts|0120.ts|0121.ts|0122.ts|0123.ts|  Duration: 03:31:48.51, start: 1.486889, bitrate: 778 kb/s
  Program 1 
    Metadata:
      service_name    : Service01
      service_provider: FFmpeg
    Stream #0:0[0x100]: Video: h264 ([27][0][0][0] / 0x001B), yuv420p(tv, progressive), 1348x720, 15 fps, 15 tbr, 90k tbn, 30 tbc
    Stream #0:1[0x101](und): Audio: aac ([15][0][0][0] / 0x000F), 44100 Hz, stereo, fltp, 45 kb/s
Output #0, mp4, to 'E:\珠峰课\Vue.mp4':
  Metadata:
    date            : 2020-07-19T19:18:25.2218430+08:00
    encoder         : Lavf58.32.104
    Stream #0:0: Video: h264 (avc1 / 0x31637661), yuv420p(tv, progressive), 1348x720, q=2-31, 15 fps, 15 tbr, 90k tbn, 90k tbc
    Stream #0:1(und): Audio: aac (mp4a / 0x6134706D), 44100 Hz, stereo, fltp, 45 kb/s
Stream mapping:
  Stream #0:0 -> #0:0 (copy)
  Stream #0:1 -> #0:1 (copy)
Press [q] to stop, [?] for help
[mp4 @ 03aea980] Non-monotonous DTS in output stream 0:1; previous: 13243702, current: 13243312; changing to 13243703. This may result in incorrect timestamps in the output file.
[mp4 @ 03aea980] Non-monotonous DTS in output stream 0:1; previous: 13261744, current: 13260328; changing to 13261745. This may result in incorrect timestamps in the output file.
[mp4 @ 03aea980] Non-monotonous DTS in output stream 0:1; previous: 13261745, current: 13261352; changing to 13261746. This may result in incorrect timestamps in the output file.
[mp4 @ 03aea980] Non-monotonous DTS in output stream 0:1; previous: 26473745, current: 26472288; changing to 26473746. This may result in incorrect timestamps in the output file.
[mp4 @ 03aea980] Non-monotonous DTS in output stream 0:1; previous: 26473746, current: 26473312; changing to 26473747. This may result in incorrect timestamps in the output file.
[mp4 @ 03aea980] Non-monotonous DTS in output stream 0:1; previous: 26491744, current: 26490931; changing to 26491745. This may result in incorrect timestamps in the output file.
[mp4 @ 03aea980] Non-monotonous DTS in output stream 0:1; previous: 39703794, current: 39702288; changing to 39703795. This may result in incorrect timestamps in the output file.
[mp4 @ 03aea980] Non-monotonous DTS in output stream 0:1; previous: 39703795, current: 39703312; changing to 39703796. This may result in incorrect timestamps in the output file.
[mp4 @ 03aea980] Non-monotonous DTS in output stream 0:1; previous: 39720720, current: 39720377; changing to 39720721. This may result in incorrect timestamps in the output file.
frame=13948 fps=0.0 q=-1.0 size=   55808kB time=00:15:29.71 bitrate= 491.7kbits/s speed=1.86e+03x    [mp4 @ 03aea980] Non-monotonous DTS in output stream 0:1; previous: 52934464, current: 52933312; changing to 52934465. This may result in incorrect timestamps in the output file.
[mp4 @ 03aea980] Non-monotonous DTS in output stream 0:1; previous: 52934465, current: 52934336; changing to 52934466. This may result in incorrect timestamps in the output file.
[mp4 @ 03aea980] Non-monotonous DTS in output stream 0:1; previous: 52950720, current: 52949083; changing to 52950721. This may result in incorrect timestamps in the output file.
[mp4 @ 03aea980] Non-monotonous DTS in output stream 0:1; previous: 52950721, current: 52950107; changing to 52950722. This may result in incorrect timestamps in the output file.
[mp4 @ 03aea980] Non-monotonous DTS in output stream 0:1; previous: 66163431, current: 66161264; changing to 66163432. This may result in incorrect timestamps in the output file.
[mp4 @ 03aea980] Non-monotonous DTS in output stream 0:1; previous: 66163432, current: 66162288; changing to 66163433. This may result in incorrect timestamps in the output file.
[mp4 @ 03aea980] Non-monotonous DTS in output stream 0:1; previous: 66163433, current: 66163312; changing to 66163434. This may result in incorrect timestamps in the output file.
[mp4 @ 03aea980] Non-monotonous DTS in output stream 0:1; previous: 66179696, current: 66178662; changing to 66179697. This may result in incorrect timestamps in the output file.
[mp4 @ 03aea980] Non-monotonous DTS in output stream 0:1; previous: 66179697, current: 66179686; changing to 66179698. This may result in incorrect timestamps in the output file.
[mp4 @ 03aea980] Non-monotonous DTS in output stream 0:1; previous: 79393147, current: 79391264; changing to 79393148. This may result in incorrect timestamps in the output file.
[mp4 @ 03aea980] Non-monotonous DTS in output stream 0:1; previous: 79393148, current: 79392288; changing to 79393149. This may result in incorrect timestamps in the output file.
[mp4 @ 03aea980] Non-monotonous DTS in output stream 0:1; previous: 79410720, current: 79409627; changing to 79410721. This may result in incorrect timestamps in the output file.
[mp4 @ 03aea980] Non-monotonous DTS in output stream 0:1; previous: 79410721, current: 79410651; changing to 79410722. This may result in incorrect timestamps in the output file.
frame=28225 fps=28223 q=-1.0 size=  120320kB time=00:31:21.51 bitrate= 523.9kbits/s speed=1.88e+03x    [mp4 @ 03aea980] Non-monotonous DTS in output stream 0:1; previous: 92623749, current: 92622288; changing to 92623750. This may result in incorrect timestamps in the output file.
[mp4 @ 03aea980] Non-monotonous DTS in output stream 0:1; previous: 92623750, current: 92623311; changing to 92623751. This may result in incorrect timestamps in the output file.
[mp4 @ 03aea980] Non-monotonous DTS in output stream 0:1; previous: 92641744, current: 92640225; changing to 92641745. This may result in incorrect timestamps in the output file.
[mp4 @ 03aea980] Non-monotonous DTS in output stream 0:1; previous: 92641745, current: 92641249; changing to 92641746. This may result in incorrect timestamps in the output file.
[mp4 @ 03aea980] Non-monotonous DTS in output stream 0:1; previous: 105852661, current: 105851264; changing to 105852662. This may result in incorrect timestamps in the output file.
[mp4 @ 03aea980] Non-monotonous DTS in output stream 0:1; previous: 105852662, current: 105852288; changing to 105852663. This may result in incorrect timestamps in the output file.
[mp4 @ 03aea980] Non-monotonous DTS in output stream 0:1; previous: 105869696, current: 105868603; changing to 105869697. This may result in incorrect timestamps in the output file.
[mp4 @ 03aea980] Non-monotonous DTS in output stream 0:1; previous: 105869697, current: 105869627; changing to 105869698. This may result in incorrect timestamps in the output file.
[mp4 @ 03aea980] Non-monotonous DTS in output stream 0:1; previous: 119083676, current: 119082288; changing to 119083677. This may result in incorrect timestamps in the output file.
[mp4 @ 03aea980] Non-monotonous DTS in output stream 0:1; previous: 119083677, current: 119083312; changing to 119083678. This may result in incorrect timestamps in the output file.
[mp4 @ 03aea980] Non-monotonous DTS in output stream 0:1; previous: 119100720, current: 119100097; changing to 119100721. This may result in incorrect timestamps in the output file.
frame=43806 fps=29202 q=-1.0 size=  183040kB time=00:48:40.24 bitrate= 513.5kbits/s speed=1.95e+03x    [mp4 @ 03aea980] Non-monotonous DTS in output stream 0:1; previous: 132315054, current: 132313312; changing to 132315055. This may result in incorrect timestamps in the output file.
[mp4 @ 03aea980] Non-monotonous DTS in output stream 0:1; previous: 132315055, current: 132314336; changing to 132315056. This may result in incorrect timestamps in the output file.
[mp4 @ 03aea980] Non-monotonous DTS in output stream 0:1; previous: 132331744, current: 132330651; changing to 132331745. This may result in incorrect timestamps in the output file.
[mp4 @ 03aea980] Non-monotonous DTS in output stream 0:1; previous: 132331745, current: 132331675; changing to 132331746. This may result in incorrect timestamps in the output file.
[mp4 @ 03aea980] Non-monotonous DTS in output stream 0:1; previous: 145543093, current: 145541264; changing to 145543094. This may result in incorrect timestamps in the output file.
[mp4 @ 03aea980] Non-monotonous DTS in output stream 0:1; previous: 145543094, current: 145542288; changing to 145543095. This may result in incorrect timestamps in the output file.
[mp4 @ 03aea980] Non-monotonous DTS in output stream 0:1; previous: 145728891, current: 145728372; changing to 145728892. This may result in incorrect timestamps in the output file.
[mp4 @ 03aea980] Non-monotonous DTS in output stream 0:1; previous: 158772637, current: 158771264; changing to 158772638. This may result in incorrect timestamps in the output file.
[mp4 @ 03aea980] Non-monotonous DTS in output stream 0:1; previous: 158772638, current: 158772288; changing to 158772639. This may result in incorrect timestamps in the output file.
[mp4 @ 03aea980] Non-monotonous DTS in output stream 0:1; previous: 158958818, current: 158957799; changing to 158958819. This may result in incorrect timestamps in the output file.
frame=58163 fps=29080 q=-1.0 size=  252672kB time=01:04:37.37 bitrate= 533.8kbits/s speed=1.94e+03x    [mp4 @ 03aea980] Non-monotonous DTS in output stream 0:1; previous: 172002609, current: 172001264; changing to 172002610. This may result in incorrect timestamps in the output file.
[mp4 @ 03aea980] Non-monotonous DTS in output stream 0:1; previous: 172002610, current: 172002288; changing to 172002611. This may result in incorrect timestamps in the output file.
[mp4 @ 03aea980] Non-monotonous DTS in output stream 0:1; previous: 172187911, current: 172187290; changing to 172187912. This may result in incorrect timestamps in the output file.
[mp4 @ 03aea980] Non-monotonous DTS in output stream 0:1; previous: 185235533, current: 185234336; changing to 185235534. This may result in incorrect timestamps in the output file.
[mp4 @ 03aea980] Non-monotonous DTS in output stream 0:1; previous: 185235534, current: 185235360; changing to 185235535. This may result in incorrect timestamps in the output file.
[mp4 @ 03aea980] Non-monotonous DTS in output stream 0:1; previous: 185419955, current: 185419215; changing to 185419956. This may result in incorrect timestamps in the output file.
[mp4 @ 03aea980] Non-monotonous DTS in output stream 0:1; previous: 198464068, current: 198462288; changing to 198464069. This may result in incorrect timestamps in the output file.
[mp4 @ 03aea980] Non-monotonous DTS in output stream 0:1; previous: 198464069, current: 198463311; changing to 198464070. This may result in incorrect timestamps in the output file.
[mp4 @ 03aea980] Non-monotonous DTS in output stream 0:1; previous: 198648774, current: 198648269; changing to 198648775. This may result in incorrect timestamps in the output file.
frame=71835 fps=28732 q=-1.0 size=  333312kB time=01:19:48.84 bitrate= 570.2kbits/s speed=1.92e+03x    [mp4 @ 03aea980] Non-monotonous DTS in output stream 0:1; previous: 211693912, current: 211692288; changing to 211693913. This may result in incorrect timestamps in the output file.
[mp4 @ 03aea980] Non-monotonous DTS in output stream 0:1; previous: 211693913, current: 211693312; changing to 211693914. This may result in incorrect timestamps in the output file.
[mp4 @ 03aea980] Non-monotonous DTS in output stream 0:1; previous: 211878657, current: 211877446; changing to 211878658. This may result in incorrect timestamps in the output file.
[mp4 @ 03aea980] Non-monotonous DTS in output stream 0:1; previous: 211878658, current: 211878470; changing to 211878659. This may result in incorrect timestamps in the output file.
[mp4 @ 03aea980] Non-monotonous DTS in output stream 0:1; previous: 224923994, current: 224922288; changing to 224923995. This may result in incorrect timestamps in the output file.
[mp4 @ 03aea980] Non-monotonous DTS in output stream 0:1; previous: 224923995, current: 224923312; changing to 224923996. This may result in incorrect timestamps in the output file.
[mp4 @ 03aea980] Non-monotonous DTS in output stream 0:1; previous: 225109916, current: 225109528; changing to 225109917. This may result in incorrect timestamps in the output file.
[mp4 @ 03aea980] Non-monotonous DTS in output stream 0:1; previous: 238153240, current: 238151264; changing to 238153241. This may result in incorrect timestamps in the output file.
[mp4 @ 03aea980] Non-monotonous DTS in output stream 0:1; previous: 238153241, current: 238152288; changing to 238153242. This may result in incorrect timestamps in the output file.
[mp4 @ 03aea980] Non-monotonous DTS in output stream 0:1; previous: 238337750, current: 238336539; changing to 238337751. This may result in incorrect timestamps in the output file.
[mp4 @ 03aea980] Non-monotonous DTS in output stream 0:1; previous: 238337751, current: 238337564; changing to 238337752. This may result in incorrect timestamps in the output file.
frame=84000 fps=27998 q=-1.0 size=  418816kB time=01:33:19.84 bitrate= 612.7kbits/s speed=1.87e+03x    [mp4 @ 03aea980] Non-monotonous DTS in output stream 0:1; previous: 251384465, current: 251383312; changing to 251384466. This may result in incorrect timestamps in the output file.
[mp4 @ 03aea980] Non-monotonous DTS in output stream 0:1; previous: 251384466, current: 251384335; changing to 251384467. This may result in incorrect timestamps in the output file.
[mp4 @ 03aea980] Non-monotonous DTS in output stream 0:1; previous: 251569010, current: 251568269; changing to 251569011. This may result in incorrect timestamps in the output file.
[mp4 @ 03aea980] Non-monotonous DTS in output stream 0:1; previous: 264614147, current: 264612288; changing to 264614148. This may result in incorrect timestamps in the output file.
[mp4 @ 03aea980] Non-monotonous DTS in output stream 0:1; previous: 264614148, current: 264613312; changing to 264614149. This may result in incorrect timestamps in the output file.
[mp4 @ 03aea980] Non-monotonous DTS in output stream 0:1; previous: 264797985, current: 264796540; changing to 264797986. This may result in incorrect timestamps in the output file.
[mp4 @ 03aea980] Non-monotonous DTS in output stream 0:1; previous: 264797986, current: 264797564; changing to 264797987. This may result in incorrect timestamps in the output file.
[mp4 @ 03aea980] Non-monotonous DTS in output stream 0:1; previous: 277842736, current: 277842288; changing to 277842737. This may result in incorrect timestamps in the output file.
[mp4 @ 03aea980] Non-monotonous DTS in output stream 0:1; previous: 278071429, current: 278070101; changing to 278071430. This may result in incorrect timestamps in the output file.
[mp4 @ 03aea980] Non-monotonous DTS in output stream 0:1; previous: 278071430, current: 278071125; changing to 278071431. This may result in incorrect timestamps in the output file.
frame=95976 fps=27420 q=-1.0 size=  506112kB time=01:46:38.24 bitrate= 648.0kbits/s speed=1.83e+03x    [mp4 @ 03aea980] Non-monotonous DTS in output stream 0:1; previous: 291072853, current: 291071264; changing to 291072854. This may result in incorrect timestamps in the output file.
[mp4 @ 03aea980] Non-monotonous DTS in output stream 0:1; previous: 291072854, current: 291072288; changing to 291072855. This may result in incorrect timestamps in the output file.
[mp4 @ 03aea980] Non-monotonous DTS in output stream 0:1; previous: 291299180, current: 291299147; changing to 291299181. This may result in incorrect timestamps in the output file.
[mp4 @ 03aea980] Non-monotonous DTS in output stream 0:1; previous: 304304265, current: 304302288; changing to 304304266. This may result in incorrect timestamps in the output file.
[mp4 @ 03aea980] Non-monotonous DTS in output stream 0:1; previous: 304304266, current: 304303312; changing to 304304267. This may result in incorrect timestamps in the output file.
[mp4 @ 03aea980] Non-monotonous DTS in output stream 0:1; previous: 304551791, current: 304551051; changing to 304551792. This may result in incorrect timestamps in the output file.
[mp4 @ 03aea980] Non-monotonous DTS in output stream 0:1; previous: 317534466, current: 317533312; changing to 317534467. This may result in incorrect timestamps in the output file.
[mp4 @ 03aea980] Non-monotonous DTS in output stream 0:1; previous: 317534467, current: 317534336; changing to 317534468. This may result in incorrect timestamps in the output file.
[mp4 @ 03aea980] Non-monotonous DTS in output stream 0:1; previous: 317781591, current: 317780733; changing to 317781592. This may result in incorrect timestamps in the output file.
frame=109202 fps=27299 q=-1.0 size=  586240kB time=02:01:19.97 bitrate= 659.7kbits/s speed=1.82e+03x    [mp4 @ 03aea980] Non-monotonous DTS in output stream 0:1; previous: 330765323, current: 330763312; changing to 330765324. This may result in incorrect timestamps in the output file.
[mp4 @ 03aea980] Non-monotonous DTS in output stream 0:1; previous: 330765324, current: 330764336; changing to 330765325. This may result in incorrect timestamps in the output file.
[mp4 @ 03aea980] Non-monotonous DTS in output stream 0:1; previous: 330990131, current: 330989113; changing to 330990132. This may result in incorrect timestamps in the output file.
[mp4 @ 03aea980] Non-monotonous DTS in output stream 0:1; previous: 343994299, current: 343992288; changing to 343994300. This may result in incorrect timestamps in the output file.
[mp4 @ 03aea980] Non-monotonous DTS in output stream 0:1; previous: 343994300, current: 343993312; changing to 343994301. This may result in incorrect timestamps in the output file.
[mp4 @ 03aea980] Non-monotonous DTS in output stream 0:1; previous: 344242816, current: 344241369; changing to 344242817. This may result in incorrect timestamps in the output file.
[mp4 @ 03aea980] Non-monotonous DTS in output stream 0:1; previous: 344242817, current: 344242394; changing to 344242818. This may result in incorrect timestamps in the output file.
frame=121212 fps=26934 q=-1.0 size=  681728kB time=02:14:40.64 bitrate= 691.1kbits/s speed=1.8e+03x    [mp4 @ 03aea980] Non-monotonous DTS in output stream 0:1; previous: 357222927, current: 357221264; changing to 357222928. This may result in incorrect timestamps in the output file.
[mp4 @ 03aea980] Non-monotonous DTS in output stream 0:1; previous: 357222928, current: 357222288; changing to 357222929. This may result in incorrect timestamps in the output file.
[mp4 @ 03aea980] Non-monotonous DTS in output stream 0:1; previous: 357468283, current: 357467470; changing to 357468284. This may result in incorrect timestamps in the output file.
[mp4 @ 03aea980] Non-monotonous DTS in output stream 0:1; previous: 370452931, current: 370451264; changing to 370452932. This may result in incorrect timestamps in the output file.
[mp4 @ 03aea980] Non-monotonous DTS in output stream 0:1; previous: 370452932, current: 370452288; changing to 370452933. This may result in incorrect timestamps in the output file.
[mp4 @ 03aea980] Non-monotonous DTS in output stream 0:1; previous: 370699508, current: 370697828; changing to 370699509. This may result in incorrect timestamps in the output file.
[mp4 @ 03aea980] Non-monotonous DTS in output stream 0:1; previous: 370699509, current: 370698852; changing to 370699510. This may result in incorrect timestamps in the output file.
[mp4 @ 03aea980] Non-monotonous DTS in output stream 0:1; previous: 383684313, current: 383682288; changing to 383684314. This may result in incorrect timestamps in the output file.
[mp4 @ 03aea980] Non-monotonous DTS in output stream 0:1; previous: 383684314, current: 383683311; changing to 383684315. This may result in incorrect timestamps in the output file.
[mp4 @ 03aea980] Non-monotonous DTS in output stream 0:1; previous: 383909180, current: 383909146; changing to 383909181. This may result in incorrect timestamps in the output file.
[mp4 @ 03aea980] Non-monotonous DTS in output stream 0:1; previous: 383929626, current: 383929591; changing to 383929627. This may result in incorrect timestamps in the output file.
frame=133456 fps=26690 q=-1.0 size=  769024kB time=02:28:16.91 bitrate= 708.1kbits/s speed=1.78e+03x    [mp4 @ 03aea980] Non-monotonous DTS in output stream 0:1; previous: 396914347, current: 396913312; changing to 396914348. This may result in incorrect timestamps in the output file.
[mp4 @ 03aea980] Non-monotonous DTS in output stream 0:1; previous: 396914348, current: 396914335; changing to 396914349. This may result in incorrect timestamps in the output file.
[mp4 @ 03aea980] Non-monotonous DTS in output stream 0:1; previous: 397142135, current: 397142101; changing to 397142136. This may result in incorrect timestamps in the output file.
[mp4 @ 03aea980] Non-monotonous DTS in output stream 0:1; previous: 397161557, current: 397160581; changing to 397161558. This may result in incorrect timestamps in the output file.
[mp4 @ 03aea980] Non-monotonous DTS in output stream 0:1; previous: 410143790, current: 410142288; changing to 410143791. This may result in incorrect timestamps in the output file.
[mp4 @ 03aea980] Non-monotonous DTS in output stream 0:1; previous: 410143791, current: 410143312; changing to 410143792. This may result in incorrect timestamps in the output file.
[mp4 @ 03aea980] Non-monotonous DTS in output stream 0:1; previous: 410454172, current: 410453902; changing to 410454173. This may result in incorrect timestamps in the output file.
[mp4 @ 03aea980] Non-monotonous DTS in output stream 0:1; previous: 423372877, current: 423371264; changing to 423372878. This may result in incorrect timestamps in the output file.
[mp4 @ 03aea980] Non-monotonous DTS in output stream 0:1; previous: 423372878, current: 423372288; changing to 423372879. This may result in incorrect timestamps in the output file.
[mp4 @ 03aea980] Non-monotonous DTS in output stream 0:1; previous: 423683468, current: 423682301; changing to 423683469. This may result in incorrect timestamps in the output file.
[mp4 @ 03aea980] Non-monotonous DTS in output stream 0:1; previous: 423683469, current: 423683326; changing to 423683470. This may result in incorrect timestamps in the output file.
frame=147360 fps=26791 q=-1.0 size=  853504kB time=02:43:43.84 bitrate= 711.7kbits/s speed=1.79e+03x    [mp4 @ 03aea980] Non-monotonous DTS in output stream 0:1; previous: 436603838, current: 436602288; changing to 436603839. This may result in incorrect timestamps in the output file.
[mp4 @ 03aea980] Non-monotonous DTS in output stream 0:1; previous: 436603839, current: 436603312; changing to 436603840. This may result in incorrect timestamps in the output file.
[mp4 @ 03aea980] Non-monotonous DTS in output stream 0:1; previous: 436914329, current: 436913706; changing to 436914330. This may result in incorrect timestamps in the output file.
[mp4 @ 03aea980] Non-monotonous DTS in output stream 0:1; previous: 449833515, current: 449831264; changing to 449833516. This may result in incorrect timestamps in the output file.
[mp4 @ 03aea980] Non-monotonous DTS in output stream 0:1; previous: 449833516, current: 449832288; changing to 449833517. This may result in incorrect timestamps in the output file.
[mp4 @ 03aea980] Non-monotonous DTS in output stream 0:1; previous: 449833517, current: 449833312; changing to 449833518. This may result in incorrect timestamps in the output file.
[mp4 @ 03aea980] Non-monotonous DTS in output stream 0:1; previous: 450144491, current: 450143515; changing to 450144492. This may result in incorrect timestamps in the output file.
[mp4 @ 03aea980] Non-monotonous DTS in output stream 0:1; previous: 463063324, current: 463062288; changing to 463063325. This may result in incorrect timestamps in the output file.
[mp4 @ 03aea980] Non-monotonous DTS in output stream 0:1; previous: 463063325, current: 463063312; changing to 463063326. This may result in incorrect timestamps in the output file.
[mp4 @ 03aea980] Non-monotonous DTS in output stream 0:1; previous: 463375470, current: 463374612; changing to 463375471. This may result in incorrect timestamps in the output file.
frame=161031 fps=26837 q=-1.0 size=  934656kB time=02:58:55.24 bitrate= 713.2kbits/s speed=1.79e+03x    [mp4 @ 03aea980] Non-monotonous DTS in output stream 0:1; previous: 476293279, current: 476291264; changing to 476293280. This may result in incorrect timestamps in the output file.
[mp4 @ 03aea980] Non-monotonous DTS in output stream 0:1; previous: 476293280, current: 476292288; changing to 476293281. This may result in incorrect timestamps in the output file.
[mp4 @ 03aea980] Non-monotonous DTS in output stream 0:1; previous: 476602487, current: 476601467; changing to 476602488. This may result in incorrect timestamps in the output file.
[mp4 @ 03aea980] Non-monotonous DTS in output stream 0:1; previous: 489523250, current: 489522288; changing to 489523251. This may result in incorrect timestamps in the output file.
[mp4 @ 03aea980] Non-monotonous DTS in output stream 0:1; previous: 489833350, current: 489832727; changing to 489833351. This may result in incorrect timestamps in the output file.
[mp4 @ 03aea980] Non-monotonous DTS in output stream 0:1; previous: 502752887, current: 502751264; changing to 502752888. This may result in incorrect timestamps in the output file.
[mp4 @ 03aea980] Non-monotonous DTS in output stream 0:1; previous: 502752888, current: 502752288; changing to 502752889. This may result in incorrect timestamps in the output file.
[mp4 @ 03aea980] Non-monotonous DTS in output stream 0:1; previous: 503064490, current: 503062927; changing to 503064491. This may result in incorrect timestamps in the output file.
[mp4 @ 03aea980] Non-monotonous DTS in output stream 0:1; previous: 503064491, current: 503063951; changing to 503064492. This may result in incorrect timestamps in the output file.
frame=172732 fps=26573 q=-1.0 size= 1019648kB time=03:11:55.43 bitrate= 725.4kbits/s speed=1.77e+03x    frame=175466 fps=25012 q=-1.0 size= 1045760kB time=03:14:57.57 bitrate= 732.4kbits/s speed=1.67e+03x    [mp4 @ 03aea980] Non-monotonous DTS in output stream 0:1; previous: 515984112, current: 515982288; changing to 515984113. This may result in incorrect timestamps in the output file.
[mp4 @ 03aea980] Non-monotonous DTS in output stream 0:1; previous: 515984113, current: 515983312; changing to 515984114. This may result in incorrect timestamps in the output file.
[mp4 @ 03aea980] Non-monotonous DTS in output stream 0:1; previous: 516285156, current: 516284769; changing to 516285157. This may result in incorrect timestamps in the output file.
frame=179579 fps=23269 q=-1.0 size= 1075456kB time=03:19:31.77 bitrate= 735.9kbits/s speed=1.55e+03x    [mp4 @ 03aea980] Non-monotonous DTS in output stream 0:1; previous: 529214146, current: 529212288; changing to 529214147. This may result in incorrect timestamps in the output file.
[mp4 @ 03aea980] Non-monotonous DTS in output stream 0:1; previous: 529214147, current: 529213312; changing to 529214148. This may result in incorrect timestamps in the output file.
frame=184152 fps=22410 q=-1.0 size= 1110016kB time=03:24:36.64 bitrate= 740.7kbits/s speed=1.49e+03x    [mp4 @ 03aea980] Non-monotonous DTS in output stream 0:1; previous: 542445073, current: 542443312; changing to 542445074. This may result in incorrect timestamps in the output file.
[mp4 @ 03aea980] Non-monotonous DTS in output stream 0:1; previous: 542445074, current: 542444336; changing to 542445075. This may result in incorrect timestamps in the output file.
[mp4 @ 03aea980] Non-monotonous DTS in output stream 0:1; previous: 542798759, current: 542798165; changing to 542798760. This may result in incorrect timestamps in the output file.
[mp4 @ 03aea980] Non-monotonous DTS in output stream 0:1; previous: 555673705, current: 555672288; changing to 555673706. This may result in incorrect timestamps in the output file.
[mp4 @ 03aea980] Non-monotonous DTS in output stream 0:1; previous: 555673706, current: 555673312; changing to 555673707. This may result in incorrect timestamps in the output file.
[mp4 @ 03aea980] Non-monotonous DTS in output stream 0:1; previous: 556026828, current: 556025617; changing to 556026829. This may result in incorrect timestamps in the output file.
[mp4 @ 03aea980] Non-monotonous DTS in output stream 0:1; previous: 556026829, current: 556026641; changing to 556026830. This may result in incorrect timestamps in the output file.
frame=190627 fps=21910 q=-1.0 Lsize= 1161284kB time=03:31:48.31 bitrate= 748.6kbits/s speed=1.46e+03x    
video:1082611kB audio:70762kB subtitle:0kB other streams:0kB global headers:0kB muxing overhead: 0.685929%
